<svg xmlns="http://www.w3.org/2000/svg" id="Layer_1" data-name="Layer 1" viewBox="0 0 461 276"><defs><style>      .cls-1 {        isolation: isolate;      }      .cls-2 {        fill: #fff;      }      .cls-3 {        fill: #ee3231;      }    </style></defs><g><g><path class="cls-2" d="M67.37,85.58c5.68,0,11.39.54,17.12,1.63,5.73,1.09,10.68,2.66,14.83,4.71l-3.93,19.71c-3.28-1.31-7.02-2.43-11.22-3.36-4.21-.93-8.38-1.39-12.53-1.39-11.14,0-19.93,2.91-26.38,8.72-6.45,5.82-9.67,14.65-9.67,26.5s3.22,20.68,9.67,26.5c6.44,5.82,15.24,8.72,26.38,8.72,4.15,0,8.33-.46,12.53-1.39,4.2-.93,7.95-2.05,11.22-3.36l3.93,19.71c-4.15,2.06-9.09,3.63-14.83,4.71-5.73,1.08-11.44,1.63-17.12,1.63-9.61,0-18.08-1.42-25.4-4.26s-13.43-6.77-18.35-11.8c-4.92-5.02-8.63-10.98-11.14-17.86-2.51-6.88-3.77-14.42-3.77-22.61s1.25-15.73,3.77-22.61c2.51-6.88,6.23-12.83,11.14-17.86,4.92-5.02,11.03-8.96,18.35-11.8s15.78-4.26,25.4-4.26v.02Z"></path><path class="cls-2" d="M194.67,175.52h-41.78l-6.72,21.14h-27.69l40.63-109.12h29.49l40.63,109.12h-27.69l-6.88-21.14h.01ZM159.77,154.22h28.02l-13.93-46.04-14.09,46.04h0Z"></path><path class="cls-2" d="M323.29,164.05c0,4.81-.96,9.31-2.87,13.52s-4.67,7.86-8.27,10.98c-3.6,3.11-7.97,5.57-13.11,7.37-5.14,1.8-10.98,2.7-17.53,2.7-6.01,0-12.02-.66-18.02-1.97-6.01-1.31-11.58-3.22-16.71-5.73l5.41-20.48c3.82,1.86,8.14,3.47,12.94,4.83,4.8,1.37,9.99,2.05,15.56,2.05,4.59,0,8.36-.84,11.3-2.54,2.95-1.69,4.42-4.45,4.42-8.27,0-2.73-1.28-5.22-3.85-7.46s-7.24-4.61-14.01-7.13c-10.71-4.04-18.51-8.66-23.43-13.84-4.92-5.19-7.37-11.82-7.37-19.91,0-10.59,3.47-18.68,10.4-24.25,6.94-5.57,16.52-8.36,28.75-8.36,6.23,0,12.18.68,17.86,2.05,5.68,1.37,10.49,3.14,14.42,5.32l-4.59,20.15c-3.82-1.86-8-3.36-12.53-4.51-4.53-1.15-9.2-1.72-14.01-1.72-4.04,0-7.29.68-9.75,2.05s-3.69,3.69-3.69,6.96c0,1.53.22,2.84.66,3.93s1.23,2.13,2.38,3.11c1.15.98,2.76,1.97,4.83,2.95,2.07.98,4.7,2.13,7.86,3.44,4.59,1.86,8.9,3.82,12.94,5.9s7.54,4.48,10.49,7.21c2.95,2.73,5.27,5.84,6.96,9.34s2.54,7.59,2.54,12.29l.02.02Z"></path><path class="cls-2" d="M345.08,196.66v-109.12h26.87v52.27l34.41-52.27h30.31l-36.86,53.9,39.49,55.21h-32.28l-35.06-53.41v53.41h-26.88Z"></path></g><g><path class="cls-2" d="M28.57,237.84c1.75,0,3.51.17,5.28.5s3.29.82,4.57,1.45l-1.21,6.08c-1.01-.4-2.16-.75-3.46-1.04-1.3-.29-2.59-.43-3.86-.43-3.44,0-6.15.9-8.14,2.69s-2.98,4.52-2.98,8.17.99,6.38,2.98,8.17,4.7,2.69,8.14,2.69c1.28,0,2.57-.14,3.86-.43,1.3-.29,2.45-.63,3.46-1.04l1.21,6.08c-1.28.64-2.8,1.12-4.57,1.45-1.77.33-3.53.5-5.28.5-2.96,0-5.57-.44-7.83-1.31-2.26-.88-4.14-2.09-5.66-3.64-1.52-1.55-2.66-3.39-3.44-5.51s-1.16-4.45-1.16-6.97.39-4.85,1.16-6.97c.78-2.12,1.92-3.96,3.44-5.51,1.52-1.55,3.4-2.76,5.66-3.64s4.87-1.31,7.83-1.31v.02Z"></path><path class="cls-2" d="M81.58,255.27c0,2.39-.39,4.64-1.16,6.75-.78,2.1-1.9,3.95-3.36,5.53-1.47,1.58-3.26,2.84-5.38,3.76-2.12.93-4.55,1.39-7.28,1.39s-5.16-.46-7.3-1.39c-2.14-.93-3.94-2.18-5.41-3.76-1.47-1.58-2.58-3.43-3.34-5.53-.76-2.1-1.14-4.35-1.14-6.75s.38-4.64,1.14-6.74c.76-2.1,1.87-3.95,3.34-5.53,1.47-1.58,3.27-2.84,5.41-3.76,2.14-.93,4.57-1.39,7.3-1.39s5.15.46,7.28,1.39c2.12.93,3.92,2.18,5.38,3.76s2.59,3.43,3.36,5.53,1.16,4.35,1.16,6.74ZM64.4,266.14c1.45,0,2.73-.27,3.84-.81s2.05-1.29,2.8-2.25c.76-.96,1.32-2.1,1.69-3.44.37-1.33.56-2.79.56-4.37s-.19-3.04-.56-4.37-.93-2.48-1.69-3.43c-.76-.96-1.69-1.71-2.8-2.25s-2.39-.81-3.84-.81-2.77.27-3.86.81c-1.1.54-2.02,1.29-2.78,2.25s-1.32,2.1-1.69,3.43-.55,2.79-.55,4.37.18,3.04.55,4.37.93,2.48,1.69,3.44,1.68,1.71,2.78,2.25c1.09.54,2.38.81,3.86.81Z"></path><path class="cls-2" d="M113.76,272.1l-13.89-20.06v20.06h-7.98v-33.65h7.98l13.89,20.06v-20.06h7.98v33.65h-7.98Z"></path><path class="cls-2" d="M155.7,262.05c0,1.48-.29,2.87-.88,4.17s-1.44,2.43-2.55,3.38c-1.11.96-2.46,1.72-4.04,2.27-1.58.56-3.39.83-5.41.83-1.85,0-3.71-.2-5.56-.61-1.85-.4-3.57-.99-5.15-1.77l1.67-6.31c1.18.57,2.51,1.07,3.99,1.49,1.48.42,3.08.63,4.8.63,1.41,0,2.58-.26,3.49-.78s1.36-1.37,1.36-2.55c0-.84-.4-1.61-1.19-2.3-.79-.69-2.23-1.42-4.32-2.2-3.3-1.25-5.71-2.67-7.22-4.27-1.52-1.6-2.27-3.65-2.27-6.14,0-3.27,1.07-5.76,3.21-7.48s5.09-2.58,8.87-2.58c1.92,0,3.76.21,5.51.63s3.23.97,4.45,1.64l-1.41,6.21c-1.18-.57-2.47-1.04-3.86-1.39-1.4-.35-2.84-.53-4.32-.53-1.25,0-2.25.21-3.01.63s-1.14,1.14-1.14,2.15c0,.47.07.88.2,1.21.14.34.38.66.73.96.35.3.85.61,1.49.91.64.3,1.45.66,2.43,1.06,1.41.57,2.74,1.18,3.99,1.82s2.33,1.38,3.23,2.22,1.62,1.8,2.15,2.88c.52,1.08.78,2.34.78,3.79l-.02.03Z"></path><path class="cls-2" d="M189.5,238.45v6.57h-9.04v27.08h-8.29v-27.08h-9.04v-6.57h26.38-.01Z"></path><path class="cls-2" d="M224.16,249.11c0,2.26-.63,4.23-1.89,5.91-1.26,1.69-3.02,2.96-5.28,3.84l11.07,13.24h-10.21l-9.25-11.67h-1.52v11.67h-8.29v-33.65h10.71c2.09,0,4.02.22,5.81.66s3.33,1.09,4.65,1.97c1.31.88,2.34,1.98,3.08,3.31s1.11,2.9,1.11,4.72h.01ZM216.17,249.26c0-1.52-.59-2.64-1.77-3.36-1.18-.72-2.83-1.09-4.95-1.09h-2.38v9.45h2.02c2.22,0,3.96-.44,5.2-1.31,1.25-.88,1.87-2.1,1.87-3.69h.01Z"></path><path class="cls-2" d="M256.24,238.45h8.29v21.52c0,3.98-1.26,7.09-3.76,9.35-2.51,2.26-6,3.39-10.48,3.39s-7.98-1.13-10.48-3.39c-2.51-2.26-3.76-5.37-3.76-9.35v-21.52h8.29v21.78c0,1.92.5,3.39,1.52,4.4s2.49,1.52,4.45,1.52,3.43-.5,4.45-1.52c1.01-1.01,1.52-2.48,1.52-4.4v-21.78h-.04Z"></path><path class="cls-2" d="M292.82,237.84c1.75,0,3.51.17,5.28.5s3.29.82,4.57,1.45l-1.21,6.08c-1.01-.4-2.16-.75-3.46-1.04s-2.59-.43-3.86-.43c-3.44,0-6.15.9-8.14,2.69s-2.98,4.52-2.98,8.17.99,6.38,2.98,8.17,4.7,2.69,8.14,2.69c1.28,0,2.57-.14,3.86-.43,1.3-.29,2.45-.63,3.46-1.04l1.21,6.08c-1.28.64-2.8,1.12-4.57,1.45-1.77.33-3.53.5-5.28.5-2.96,0-5.57-.44-7.83-1.31-2.26-.88-4.14-2.09-5.66-3.64-1.52-1.55-2.66-3.39-3.44-5.51s-1.16-4.45-1.16-6.97.39-4.85,1.16-6.97c.78-2.12,1.92-3.96,3.44-5.51,1.52-1.55,3.4-2.76,5.66-3.64s4.87-1.31,7.83-1.31v.02Z"></path><path class="cls-2" d="M337.08,238.45v6.57h-9.04v27.08h-8.29v-27.08h-9.04v-6.57h26.38,0Z"></path><path class="cls-2" d="M354.92,272.1h-8.29v-33.65h8.29v33.65Z"></path><path class="cls-2" d="M399.83,255.27c0,2.39-.39,4.64-1.16,6.75-.78,2.1-1.9,3.95-3.36,5.53-1.47,1.58-3.26,2.84-5.38,3.76-2.12.93-4.55,1.39-7.28,1.39s-5.16-.46-7.3-1.39c-2.14-.93-3.94-2.18-5.41-3.76-1.47-1.58-2.58-3.43-3.34-5.53s-1.14-4.35-1.14-6.75.38-4.64,1.14-6.74c.76-2.1,1.87-3.95,3.34-5.53s3.27-2.84,5.41-3.76c2.14-.93,4.57-1.39,7.3-1.39s5.15.46,7.28,1.39c2.12.93,3.92,2.18,5.38,3.76,1.47,1.58,2.59,3.43,3.36,5.53s1.16,4.35,1.16,6.74ZM382.65,266.14c1.45,0,2.73-.27,3.84-.81s2.05-1.29,2.8-2.25c.76-.96,1.32-2.1,1.69-3.44.37-1.33.56-2.79.56-4.37s-.19-3.04-.56-4.37-.93-2.48-1.69-3.43c-.76-.96-1.69-1.71-2.8-2.25s-2.39-.81-3.84-.81-2.77.27-3.86.81c-1.1.54-2.02,1.29-2.78,2.25s-1.32,2.1-1.69,3.43-.55,2.79-.55,4.37.18,3.04.55,4.37.93,2.48,1.69,3.44,1.68,1.71,2.78,2.25c1.09.54,2.38.81,3.86.81Z"></path><path class="cls-2" d="M432.02,272.1l-13.89-20.06v20.06h-7.98v-33.65h7.98l13.89,20.06v-20.06h7.98v33.65h-7.98Z"></path></g><polygon class="cls-3" points="309.1 58.8 223.64 3.29 138.19 58.8 8.1 65.41 8 65.41 8 68.46 152.55 67.97 223.64 22.46 294.73 67.97 439.29 68.58 439.29 65.41 309.1 58.8"></polygon><g><rect class="cls-3" x="209.48" y="40.1" width="11.32" height="11.32"></rect><rect class="cls-3" x="226.48" y="40.1" width="11.32" height="11.32"></rect><rect class="cls-3" x="209.48" y="57.26" width="11.32" height="11.32"></rect><rect class="cls-3" x="226.48" y="57.26" width="11.32" height="11.32"></rect></g><rect class="cls-3" x="8" y="215.38" width="432" height="4.23"></rect></g><g class="cls-1"><g class="cls-1"><path class="cls-2" d="M448.21,87.57v.94h-1.84v5.45h-1.14v-5.45h-1.84v-.94h4.82ZM450.54,89.46l-.31,4.49h-1.1l.47-6.39h1.18l1.86,4.2,1.86-4.2h1.18l.47,6.39h-1.1l-.31-4.49-1.49,3.29h-1.22l-1.49-3.29Z"></path></g></g></svg>